<svg width="195" height="195" viewBox="0 0 195 195" fill="none" xmlns="http://www.w3.org/2000/svg">
<g clip-path="url(#clip0_51_2)">
<path d="M103.594 195H91.4062C86.5578 195 81.9079 193.074 78.4795 189.646C75.0511 186.217 73.125 181.567 73.125 176.719C73.0853 175.523 72.6943 174.365 72.0007 173.389C71.3072 172.414 70.3418 171.665 69.225 171.234C67.7625 170.828 66.4219 170.341 65.2031 169.772C64.1336 169.25 62.9347 169.053 61.7543 169.204C60.574 169.356 59.4638 169.85 58.5609 170.625C55.1464 173.956 50.5649 175.821 45.7945 175.821C41.0241 175.821 36.4427 173.956 33.0281 170.625L24.375 161.972C21.0437 158.557 19.179 153.976 19.179 149.205C19.179 144.435 21.0437 139.854 24.375 136.439C25.1901 135.562 25.7289 134.464 25.9239 133.283C26.119 132.102 25.9618 130.889 25.4719 129.797C24.7406 128.578 24.1109 127.237 23.5828 125.775C23.1652 124.686 22.4436 123.739 21.5038 123.048C20.564 122.356 19.4456 121.949 18.2812 121.875C13.4328 121.875 8.78285 119.949 5.35445 116.521C1.92605 113.092 0 108.442 0 103.594L0 91.4062C0 86.5578 1.92605 81.9079 5.35445 78.4795C8.78285 75.0511 13.4328 73.125 18.2812 73.125C19.4774 73.0853 20.6353 72.6943 21.6106 72.0007C22.5859 71.3072 23.3354 70.3418 23.7656 69.225C24.1719 67.7625 24.6594 66.4219 25.2281 65.2031C25.75 64.1336 25.9474 62.9347 25.7958 61.7543C25.6442 60.574 25.1502 59.4638 24.375 58.5609C21.0437 55.1464 19.179 50.5649 19.179 45.7945C19.179 41.0241 21.0437 36.4427 24.375 33.0281L33.0281 24.375C36.4427 21.0437 41.0241 19.179 45.7945 19.179C50.5649 19.179 55.1464 21.0437 58.5609 24.375C59.4379 25.1901 60.5355 25.7289 61.7168 25.9239C62.8981 26.119 64.1107 25.9618 65.2031 25.4719L69.225 23.8266C70.3512 23.3924 71.323 22.6336 72.0173 21.6463C72.7117 20.6591 73.0972 19.4879 73.125 18.2812C73.125 13.4328 75.0511 8.78285 78.4795 5.35445C81.9079 1.92605 86.5578 0 91.4062 0L103.594 0C108.442 0 113.092 1.92605 116.521 5.35445C119.949 8.78285 121.875 13.4328 121.875 18.2812C121.915 19.4774 122.306 20.6353 122.999 21.6106C123.693 22.5859 124.658 23.3354 125.775 23.7656L129.797 25.4109C130.884 25.9087 132.093 26.0759 133.274 25.8917C134.455 25.7076 135.556 25.1801 136.439 24.375C139.854 21.0437 144.435 19.179 149.205 19.179C153.976 19.179 158.557 21.0437 161.972 24.375L170.625 33.0281C173.956 36.4427 175.821 41.0241 175.821 45.7945C175.821 50.5649 173.956 55.1464 170.625 58.5609C169.81 59.4379 169.271 60.5355 169.076 61.7168C168.881 62.8981 169.038 64.1107 169.528 65.2031C170.137 66.5438 170.686 67.8844 171.173 69.225C171.608 70.3512 172.366 71.323 173.354 72.0173C174.341 72.7117 175.512 73.0972 176.719 73.125C181.567 73.125 186.217 75.0511 189.646 78.4795C193.074 81.9079 195 86.5578 195 91.4062V103.594C195 108.442 193.074 113.092 189.646 116.521C186.217 119.949 181.567 121.875 176.719 121.875C175.523 121.915 174.365 122.306 173.389 122.999C172.414 123.693 171.665 124.658 171.234 125.775C170.747 127.116 170.198 128.456 169.589 129.797C169.091 130.884 168.924 132.093 169.108 133.274C169.292 134.455 169.82 135.556 170.625 136.439C173.956 139.854 175.821 144.435 175.821 149.205C175.821 153.976 173.956 158.557 170.625 161.972L161.972 170.625C160.83 171.76 159.286 172.397 157.676 172.397C156.066 172.397 154.521 171.76 153.38 170.625C152.245 169.483 151.608 167.939 151.608 166.329C151.608 164.719 152.245 163.175 153.38 162.033L162.277 153.136C163.339 152.006 163.931 150.513 163.931 148.962C163.931 147.41 163.339 145.918 162.277 144.788C159.709 142.171 157.987 138.842 157.335 135.235C156.683 131.627 157.131 127.906 158.62 124.556C159.169 123.459 159.595 122.302 160.083 121.144C161.423 117.811 163.716 114.947 166.675 112.909C169.634 110.872 173.127 109.751 176.719 109.688C178.335 109.688 179.885 109.045 181.028 107.903C182.17 106.76 182.812 105.21 182.812 103.594V91.4062C182.812 89.7901 182.17 88.2401 181.028 87.0973C179.885 85.9545 178.335 85.3125 176.719 85.3125C173.057 85.2772 169.49 84.143 166.481 82.0569C163.471 79.9708 161.157 77.029 159.839 73.6125C159.435 72.45 158.967 71.3108 158.438 70.2C156.948 66.85 156.5 63.1295 157.152 59.5217C157.804 55.9139 159.526 52.5855 162.094 49.9688C163.156 48.8386 163.748 47.3458 163.748 45.7945C163.748 44.2433 163.156 42.7505 162.094 41.6203L153.38 32.7234C152.25 31.6608 150.757 31.0692 149.205 31.0692C147.654 31.0692 146.161 31.6608 145.031 32.7234C142.414 35.2913 139.086 37.013 135.478 37.665C131.871 38.317 128.15 37.8692 124.8 36.3797C123.703 35.8312 122.545 35.4047 121.387 34.9172C118.009 33.6146 115.093 31.3382 113.01 28.3764C110.928 25.4147 109.771 21.9011 109.688 18.2812C109.688 16.6651 109.045 15.1151 107.903 13.9723C106.76 12.8295 105.21 12.1875 103.594 12.1875H91.4062C89.7901 12.1875 88.2401 12.8295 87.0973 13.9723C85.9545 15.1151 85.3125 16.6651 85.3125 18.2812C85.2772 21.943 84.143 25.5098 82.0569 28.5194C79.9708 31.529 77.029 33.8428 73.6125 35.1609C72.45 35.5649 71.3108 36.0328 70.2 36.5625C66.85 38.052 63.1295 38.4998 59.5217 37.8478C55.9139 37.1958 52.5855 35.4741 49.9688 32.9062C48.8386 31.8437 47.3458 31.2521 45.7945 31.2521C44.2433 31.2521 42.7505 31.8437 41.6203 32.9062L32.7234 41.6203C31.6608 42.7505 31.0692 44.2433 31.0692 45.7945C31.0692 47.3458 31.6608 48.8386 32.7234 49.9688C35.3217 52.565 37.0777 55.8837 37.7625 59.4924C38.4473 63.1011 38.0291 66.8324 36.5625 70.2C36.0141 71.2969 35.5875 72.4547 35.1 73.6125C33.7857 77.0194 31.4813 79.9547 28.4836 82.04C25.486 84.1253 21.9326 85.2651 18.2812 85.3125C16.6651 85.3125 15.1151 85.9545 13.9723 87.0973C12.8295 88.2401 12.1875 89.7901 12.1875 91.4062V103.594C12.1875 105.21 12.8295 106.76 13.9723 107.903C15.1151 109.045 16.6651 109.688 18.2812 109.688C21.943 109.723 25.5098 110.857 28.5194 112.943C31.529 115.029 33.8428 117.971 35.1609 121.387C35.5649 122.55 36.0328 123.689 36.5625 124.8C38.052 128.15 38.4998 131.871 37.8478 135.478C37.1958 139.086 35.4741 142.414 32.9062 145.031C31.8437 146.161 31.2521 147.654 31.2521 149.205C31.2521 150.757 31.8437 152.25 32.9062 153.38L41.8031 162.277C42.9333 163.339 44.4261 163.931 45.9773 163.931C47.5286 163.931 49.0214 163.339 50.1516 162.277C52.7683 159.709 56.0967 157.987 59.7045 157.335C63.3123 156.683 67.0328 157.131 70.3828 158.62C71.4797 159.169 72.6375 159.595 73.7953 160.083C77.1396 161.414 80.0164 163.703 82.0653 166.662C84.1141 169.622 85.2437 173.12 85.3125 176.719C85.3125 178.335 85.9545 179.885 87.0973 181.028C88.2401 182.17 89.7901 182.812 91.4062 182.812H103.594C105.21 182.812 106.76 182.17 107.903 181.028C109.045 179.885 109.688 178.335 109.688 176.719C109.723 173.057 110.857 169.49 112.943 166.481C115.029 163.471 117.971 161.157 121.387 159.839C122.55 159.435 123.689 158.967 124.8 158.438C125.532 158.109 126.322 157.929 127.124 157.906C127.926 157.883 128.725 158.018 129.474 158.304C130.224 158.59 130.91 159.02 131.494 159.571C132.077 160.122 132.546 160.783 132.874 161.515C133.202 162.247 133.383 163.037 133.406 163.839C133.429 164.641 133.294 165.44 133.008 166.189C132.722 166.939 132.291 167.625 131.74 168.209C131.19 168.792 130.529 169.261 129.797 169.589C128.456 170.198 127.116 170.747 125.775 171.234C124.658 171.665 123.693 172.414 122.999 173.389C122.306 174.365 121.915 175.523 121.875 176.719C121.875 181.567 119.949 186.217 116.521 189.646C113.092 193.074 108.442 195 103.594 195Z" fill="white"/>
<path d="M67.0312 121.875C66.2293 121.88 65.4343 121.726 64.6918 121.423C63.9494 121.119 63.2741 120.673 62.7047 120.108L44.4234 101.827C43.8523 101.26 43.3989 100.586 43.0896 99.8435C42.7802 99.1009 42.6209 98.3045 42.6209 97.5C42.6209 96.6956 42.7802 95.8991 43.0896 95.1565C43.3989 94.4139 43.8523 93.7399 44.4234 93.1734L62.7047 74.8922C63.8522 73.7447 65.4085 73.1001 67.0312 73.1001C68.654 73.1001 70.2103 73.7447 71.3578 74.8922C72.5053 76.0397 73.1499 77.596 73.1499 79.2188C73.1499 80.8415 72.5053 82.3978 71.3578 83.5453L57.3422 97.5L71.3578 111.455C72.2172 112.307 72.8033 113.396 73.0414 114.583C73.2795 115.769 73.1587 117 72.6946 118.118C72.2305 119.236 71.4439 120.19 70.4353 120.859C69.4267 121.528 68.2416 121.882 67.0312 121.875ZM127.969 121.875C126.758 121.882 125.573 121.528 124.565 120.859C123.556 120.19 122.77 119.236 122.305 118.118C121.841 117 121.721 115.769 121.959 114.583C122.197 113.396 122.783 112.307 123.642 111.455L137.658 97.5L123.642 83.5453C123.074 82.9771 122.623 82.3026 122.316 81.5603C122.008 80.8179 121.85 80.0223 121.85 79.2188C121.85 77.596 122.495 76.0397 123.642 74.8922C124.79 73.7447 126.346 73.1001 127.969 73.1001C128.772 73.1001 129.568 73.2583 130.31 73.5658C131.053 73.8733 131.727 74.324 132.295 74.8922L150.577 93.1734C151.148 93.7399 151.601 94.4139 151.91 95.1565C152.22 95.8991 152.379 96.6956 152.379 97.5C152.379 98.3045 152.22 99.1009 151.91 99.8435C151.601 100.586 151.148 101.26 150.577 101.827L132.295 120.108C131.726 120.673 131.051 121.119 130.308 121.423C129.566 121.726 128.771 121.88 127.969 121.875ZM91.4062 134.063C90.4923 134.081 89.5859 133.894 88.7542 133.514C87.9225 133.135 87.1867 132.573 86.6015 131.871C86.0163 131.169 85.5966 130.344 85.3734 129.457C85.1503 128.571 85.1295 127.646 85.3125 126.75L97.5 65.8125C97.8232 64.1963 98.7752 62.7748 100.147 61.8605C101.518 60.9463 103.196 60.6143 104.812 60.9375C106.429 61.2607 107.85 62.2128 108.764 63.5841C109.679 64.9555 110.011 66.6338 109.687 68.25L97.5 129.188C97.2151 130.585 96.4493 131.838 95.3358 132.728C94.2224 133.619 92.8319 134.091 91.4062 134.063Z" fill="white"/>
</g>
<defs>
<clipPath id="clip0_51_2">
<rect width="195" height="195" fill="white"/>
</clipPath>
</defs>
</svg>
